<svg width="241" height="240" viewBox="0 0 241 240" fill="none" xmlns="http://www.w3.org/2000/svg">
<g clip-path="url(#clip0_84_262)">
<path d="M234.012 142.864C224.762 140.489 209.179 137.947 203.429 134.031C201.054 132.406 201.345 130.614 201.762 129.364C202.179 128.197 204.554 126.989 206.012 127.072C209.304 127.197 212.595 127.906 215.762 128.781C222.804 130.697 229.804 132.697 236.72 134.989C240.387 136.197 241.554 138.989 239.429 140.781C238.179 141.822 237.012 142.864 234.012 142.864Z" fill="black"/>
<path d="M88.1786 207.239C88.5953 205.031 89.4286 203.864 90.6369 202.156C95.3453 195.572 100.262 189.114 105.095 182.656C105.387 182.281 105.72 181.864 106.095 181.572C107.762 180.156 109.637 178.489 111.804 180.031C113.97 181.614 113.22 183.947 112.054 185.822C107.22 193.697 102.304 201.531 97.3036 209.322C96.5536 210.531 95.2619 211.572 93.9703 212.197C90.7619 213.739 87.9286 211.614 88.1786 207.239Z" fill="black"/>
<path d="M192.304 205.782C192.304 207.657 190.845 208.99 189.762 209.199C188.304 209.49 187.054 209.24 184.97 207.824C184.262 207.365 183.845 206.24 183.429 205.365C180.387 198.782 177.304 192.24 174.345 185.615C173.595 183.99 172.845 182.115 172.97 180.407C173.095 178.865 174.054 176.657 175.304 176.115C176.512 175.574 178.137 175.407 180.054 177.282C180.762 177.949 181.429 179.074 181.887 180.115C184.887 187.074 187.887 194.032 190.804 201.032C191.345 202.365 191.679 203.824 192.304 205.782Z" fill="black"/>
<path d="M60.0536 148.365C58.1369 147.824 56.8869 146.907 56.5953 145.657C56.2203 144.074 57.0119 141.949 57.9286 140.449C58.6369 139.324 60.2619 138.615 61.6369 138.157C68.5119 135.865 75.4286 133.615 82.3869 131.49C83.5536 131.115 85.0536 130.99 86.1786 131.365C88.0119 131.99 88.8036 133.449 87.3036 135.199C86.4703 136.199 85.5119 137.24 84.3869 137.782C77.8869 141.032 71.3453 144.157 64.7619 147.24C63.5536 147.782 61.9286 148.949 60.0536 148.365Z" fill="black"/>
<path d="M201.22 76.8652C200.304 76.4902 199.512 74.9902 199.47 73.9902C199.429 72.6152 199.845 70.9485 200.679 69.8235C204.554 64.4902 208.637 59.2402 212.679 54.0318C213.262 53.2402 214.054 52.6152 214.845 51.9902C216.637 50.6152 218.97 49.4068 220.554 51.4902C221.47 52.6985 221.762 55.7818 220.887 56.8235C215.554 63.3235 209.804 69.5318 204.095 75.7402C203.637 76.2818 202.72 77.1568 201.22 76.8652Z" fill="black"/>
<path d="M67.6369 67.8233C69.9703 68.5317 71.7619 68.9483 73.4703 69.5733C78.4286 71.365 83.3869 73.1983 88.3036 75.0733C89.6786 75.615 91.1369 76.1567 92.2619 77.0317C93.0536 77.6567 93.9286 79.24 93.6369 79.8233C93.1369 80.7817 92.3869 81.99 90.6786 81.865C89.9703 81.8233 89.0536 81.7817 88.2619 81.5733C82.6786 80.0733 77.0953 78.6567 71.5536 76.99C69.6786 76.4483 67.7203 75.6567 66.2203 74.4483C65.1369 73.5733 64.1369 71.615 64.4286 70.4483C64.6786 69.365 65.5953 67.8233 67.6369 67.8233Z" fill="black"/>
<path d="M143.887 50.5731C143.845 51.0731 143.804 51.5731 143.637 52.0314C142.929 54.0731 142.47 56.3647 139.595 56.1564C136.554 55.9481 136.429 53.4481 136.47 51.4064C136.595 46.4897 137.054 41.5731 137.429 36.6147C137.595 34.8231 137.804 32.9897 138.304 31.2814C138.804 29.5314 139.512 27.7397 141.929 28.0314C144.179 28.3231 144.929 29.8231 144.97 31.8231C144.97 33.9897 144.304 46.4897 143.887 50.5731Z" fill="black"/>
</g>
<defs>
<clipPath id="clip0_84_262">
<rect width="240" height="240" fill="white" transform="translate(0.5)"/>
</clipPath>
</defs>
</svg>
