<svg width="221" height="222" viewBox="0 0 221 222" fill="none" xmlns="http://www.w3.org/2000/svg">
<path d="M111.711 108.007C113.526 108.43 114.999 108.67 116.438 109.137C130.979 113.801 143.986 121.465 156.37 130.232C157.818 131.263 159.195 132.56 160.123 134.014C160.625 134.797 160.575 136.38 160.1 137.292C159.734 137.976 158.273 138.489 157.442 138.351C155.856 138.113 154.228 137.574 152.784 136.806C143.247 131.761 133.748 126.677 124.285 121.518C120.75 119.578 117.251 117.525 113.753 115.509C112.575 114.85 111.433 114.115 110.366 113.341C109.146 112.494 108.41 111.187 109.179 109.856C109.693 108.982 110.054 108.034 111.711 108.007Z" fill="black"/>
<path d="M56.489 162.237C56.7612 160.425 56.9533 158.312 57.3725 156.271C59.0514 148.22 60.7302 140.169 62.485 132.155C62.8715 130.416 63.5598 128.709 64.3635 127.152C65.4224 125.063 66.9551 124.323 68.6553 124.634C70.3555 124.946 71.4318 126.285 71.5076 128.657C71.5713 130.276 71.5615 132.009 71.2097 133.559C68.8115 143.731 66.338 153.905 63.8262 164.041C63.543 165.175 63.0345 166.351 62.2952 167.23C60.4849 169.444 57.5741 168.812 56.8137 166.037C56.5325 164.949 56.6256 163.704 56.489 162.237Z" fill="black"/>
<path d="M155.76 54.7858C157.532 54.908 159.309 55.2561 161.048 55.6802C162.599 56.0697 163.708 57.1067 163.886 58.799C164.022 60.2283 162.616 61.7955 160.736 62.0517C158.218 62.3935 155.661 62.6983 153.136 62.6259C145.523 62.4092 137.87 62.0424 130.253 61.6374C127.727 61.4897 125.198 61.1912 122.668 60.8175C121.8 60.6808 120.891 60.394 120.205 59.9153C118.263 58.628 118.375 56.2153 120.431 55.2404C121.59 54.6944 123.018 54.4454 124.298 54.4249C128.514 54.1688 149.5 54.3966 155.76 54.7858Z" fill="black"/>
</svg>
