<svg width="21" height="21" viewBox="0 0 21 21" fill="none" xmlns="http://www.w3.org/2000/svg">
<path d="M7.7191 9.87569C7.53079 9.68738 7.2754 9.58159 7.0091 9.58159C6.74279 9.58159 6.4874 9.68738 6.2991 9.87569C6.11079 10.064 6.005 10.3194 6.005 10.5857C6.005 10.852 6.11079 11.1074 6.2991 11.2957L9.2991 14.2957C9.39254 14.3884 9.50335 14.4617 9.62519 14.5115C9.74703 14.5612 9.87749 14.5864 10.0091 14.5857C10.146 14.5813 10.2805 14.5489 10.4044 14.4904C10.5282 14.432 10.6388 14.3486 10.7291 14.2457L17.7291 6.24569C17.8907 6.04501 17.9687 5.7897 17.9466 5.53297C17.9246 5.27624 17.8044 5.03792 17.6109 4.8677C17.4175 4.69747 17.1658 4.60848 16.9084 4.61929C16.6509 4.63009 16.4076 4.73985 16.2291 4.92569L10.0091 12.1257L7.7191 9.87569Z" fill="#6CCC54"/>
<path d="M19.0091 9.58569C18.7439 9.58569 18.4895 9.69105 18.302 9.87859C18.1144 10.0661 18.0091 10.3205 18.0091 10.5857C18.0091 12.7074 17.1662 14.7423 15.6659 16.2425C14.1657 17.7428 12.1308 18.5857 10.0091 18.5857C8.42918 18.585 6.88485 18.1165 5.57085 17.2392C4.25685 16.362 3.23201 15.1153 2.62557 13.6565C2.01913 12.1976 1.85823 10.5918 2.16318 9.04158C2.46812 7.49138 3.22525 6.06618 4.33909 4.94569C5.07979 4.19508 5.96277 3.59974 6.93635 3.19451C7.90993 2.78928 8.95455 2.5823 10.0091 2.58569C10.6485 2.5897 11.2856 2.66347 11.9091 2.80569C12.0396 2.84605 12.1769 2.85925 12.3127 2.84449C12.4484 2.82973 12.5797 2.78732 12.6985 2.71987C12.8172 2.65242 12.9209 2.56137 13.0031 2.45232C13.0853 2.34327 13.1443 2.21853 13.1765 2.08581C13.2086 1.95308 13.2133 1.81518 13.1901 1.68059C13.1669 1.54601 13.1164 1.4176 13.0417 1.30328C12.967 1.18897 12.8696 1.09116 12.7557 1.0159C12.6417 0.940645 12.5136 0.889524 12.3791 0.865693C11.6022 0.682936 10.8071 0.589001 10.0091 0.585693C8.03343 0.595957 6.10508 1.19121 4.46739 2.29635C2.8297 3.40148 1.55606 4.96696 0.80721 6.79522C0.0583577 8.62349 -0.132151 10.6326 0.259725 12.5691C0.651601 14.5055 1.6083 16.2824 3.00909 17.6757C4.86578 19.5332 7.38274 20.5796 10.0091 20.5857C12.6613 20.5857 15.2048 19.5321 17.0802 17.6568C18.9555 15.7814 20.0091 13.2379 20.0091 10.5857C20.0091 10.3205 19.9037 10.0661 19.7162 9.87859C19.5287 9.69105 19.2743 9.58569 19.0091 9.58569Z" fill="#6CCC54"/>
</svg>
