<svg width="720" height="829" viewBox="0 0 720 829" fill="none" xmlns="http://www.w3.org/2000/svg">
<g clip-path="url(#clip0_124_437)">
<path d="M478.936 721.269C478.027 721.367 476.986 721.199 476.24 721.587C454.868 732.983 431.83 737.486 407.889 738.264C384.888 739.007 361.871 739.835 339.071 735.763C300.173 728.808 263.642 716.085 230.913 693.3C210.279 678.94 191.598 662.641 176.47 642.618C169.516 633.407 163.601 623.37 157.637 613.435C153.016 605.741 148.646 597.845 144.841 589.708C131.649 561.422 123.992 531.687 121.928 500.456C120.143 473.549 124.687 447.744 134.792 422.915C151.943 380.749 176.09 343.252 210.049 312.406C224.84 298.961 242.076 289.277 260.385 282.083C298.722 267.021 338.469 264.105 378.761 272.222C395.904 275.679 413.218 279.364 429.611 285.257C459.74 296.095 485.326 313.835 504.615 340.026C514.333 353.211 521.946 367.515 528.405 382.369C541.686 412.969 550.725 444.633 549.501 478.541C548.588 503.467 544.507 527.835 535.64 551.176C524.053 581.707 504.568 606.611 478.303 625.94C469.362 632.52 459.796 638.746 449.662 643.148C427.4 652.821 405.096 662.885 380.397 664.856C364.745 666.119 349.461 663.459 334.306 660.032C327.996 658.609 321.734 656.929 315.512 655.131C290.662 647.979 270.263 633.659 253.202 614.747C243.019 603.467 233.23 591.602 224.918 578.93C216.118 565.506 210.938 550.156 207.985 534.252C201.86 501.13 205.321 468.864 217.39 437.53C224.125 420.036 231.726 402.913 243.464 387.994C252.694 376.263 264.037 367.269 277.318 360.337C304.068 346.381 332.536 340.054 362.45 340.846C388.386 341.537 413.444 346.541 435.945 360.407C450.807 369.57 462.096 381.98 468.225 398.38C473.66 412.902 476.374 428.125 477.96 443.555C480.515 468.464 482.053 493.368 477.593 518.274C473.409 541.641 463.37 561.78 442.672 574.5C420.968 587.834 397.145 595.257 371.281 592.815C361.014 591.846 350.577 590.377 340.752 587.377C323.909 582.233 309.942 572.51 300.063 557.455C285.612 535.442 278.845 511.62 282.813 485.243C285.689 466.03 296.267 451.334 310.979 439.428C322.646 429.981 335.738 423.221 351.119 422.677C373.831 421.863 393.137 430.331 405.564 448.882C416.594 465.316 419.661 484.457 408.272 502.692C399.949 516.021 386.752 523.359 371.461 525.788C359.557 527.674 350.834 520.973 343.776 512.144C340.566 508.138 337.105 504.06 338.473 497.733C342.443 497.661 346.484 497.575 350.533 497.504L350.917 498.756L345.502 502.152C347.656 504.732 349.614 507.273 351.801 509.642C357.348 515.69 364.286 518.342 372.155 515.683C385.492 511.159 397.214 504.316 402.223 489.974C407.98 473.508 400.475 452.818 385.645 443.523C370.955 434.313 355.748 431.77 338.994 438.079C308.272 449.651 287.931 483.065 296.459 517.612C299.878 531.454 305.088 544.411 314.545 555.368C326.413 569.108 342.258 574.921 359.562 577.675C376.334 580.341 393.058 579.114 409.155 574.007C428.209 567.965 445.574 558.938 455.362 540.072C462.893 525.536 466.187 509.859 467.065 493.68C468.493 467.7 466.232 442.003 460.774 416.56C455.446 391.774 441.594 374.492 417.871 364.717C386.525 351.81 354.414 350.486 321.776 357.783C311.003 360.182 300.38 363.832 290.169 368.078C269.62 376.631 254.321 391.224 243.816 410.893C228.418 439.721 217.061 469.729 216.453 502.826C216.15 519.774 218.692 536.348 224.196 552.473C232.333 576.261 248.317 594.458 265.141 612.337C282.736 631.024 304.226 642.213 328.984 647.598C341.027 650.223 353.197 652.59 365.426 654.012C378.932 655.564 392.095 652.705 405.031 648.594C421.143 643.479 436.676 637.072 451.909 629.742C469.058 621.465 483.081 609.51 495.698 595.618C511.042 578.743 522.375 559.484 528.915 537.642C539.768 501.433 542.84 464.82 532.688 428.016C529.329 415.839 524.136 404.179 519.593 392.334C517.387 386.604 515.111 380.849 512.277 375.429C497.023 346.134 475.824 322.602 445.576 308.159C426.227 298.933 405.641 293.766 384.535 290.357C358.885 286.212 333.205 284.536 307.592 290.077C296.35 292.513 285.127 295.582 274.33 299.552C263.713 303.453 253.163 308.08 243.428 313.805C229.765 321.861 218.479 332.99 207.894 344.825C185.7 369.625 168.6 397.619 155.191 427.9C145.066 450.752 138.421 474.477 139.166 499.754C139.747 519.519 143.463 538.748 149.006 557.719C154.279 575.75 162.207 592.627 171.399 608.742C186.427 635.127 205.695 658.034 230.346 676.412C255.496 695.167 283.463 707.56 313.353 716.295C341.415 724.491 370.107 726.647 399.144 724.793C413.102 723.9 427.102 722.498 440.866 720.063C449.401 718.555 457.582 714.865 465.766 711.776C471.699 709.547 477.555 707.005 483.163 704.039C492.941 698.877 502.627 693.488 512.15 687.848C528.933 677.92 543.726 665.468 556.59 650.889C573.134 632.134 586.91 611.571 595.778 587.995C602.586 569.9 609.934 551.986 616.265 533.717C627.423 501.527 627.247 468.778 618.793 436.124C615.401 423.009 610.684 410.218 606.131 397.443C601.509 384.448 596.252 371.709 591.433 358.792C586.291 345.022 580.042 331.857 571.114 320.113C570.383 319.149 569.346 318.434 568.085 317.264C564.559 324.287 563.858 331.648 563.604 338.925C563.343 346.07 564.006 353.264 564.262 360.426C564.282 361.059 564.411 361.717 564.251 362.302C563.177 366.457 550.222 374.007 546.869 371.61C544.241 369.732 542.832 365.576 541.819 362.14C539.01 352.498 544.292 343.653 545.52 334.394C546.659 325.822 549.535 317.289 552.855 309.218C555.739 302.2 564.166 297.784 569.618 298.656C584.849 301.09 600.216 302.93 615.286 306.105C627.337 308.629 639.13 312.527 650.853 316.323C654.08 317.359 656.679 320.246 659.533 322.266L660.794 324.819C660.649 330.854 651.08 336.439 644.766 334.14C633.773 330.12 622.526 326.693 611.238 323.5C604.539 321.606 597.584 320.619 589.849 319.042C594.167 327.783 598.061 335.388 601.696 343.102C604.372 348.795 606.938 354.582 609.174 360.454C614.449 374.373 619.699 388.323 624.573 402.382C628.308 413.145 631.893 424.001 634.75 435.003C639.298 452.477 639.992 470.491 639.981 488.425C639.975 508.109 635.448 527.144 628.63 545.575C624.684 556.255 620.214 566.745 615.76 577.227C611.092 588.264 606.408 599.308 601.294 610.155C592.89 627.987 581.155 643.703 568.189 658.391C551.731 677.044 532.637 692.616 510.682 704.533C509.386 705.232 508.323 706.362 507.166 707.303L478.944 721.246L478.936 721.269Z" fill="#22D7FF"/>
</g>
<path d="M233.512 143.249C224.262 140.874 208.678 138.333 202.928 134.416C200.553 132.791 200.845 130.999 201.262 129.749C201.678 128.583 204.053 127.374 205.512 127.458C208.803 127.583 212.095 128.291 215.262 129.166C222.303 131.083 229.303 133.083 236.22 135.374C239.887 136.583 241.054 139.374 238.929 141.166C237.679 142.208 236.512 143.249 233.512 143.249Z" fill="black"/>
<path d="M87.6785 207.624C88.0951 205.416 88.9285 204.249 90.1368 202.541C94.8451 195.957 99.7618 189.499 104.595 183.041C104.887 182.666 105.22 182.249 105.595 181.957C107.262 180.541 109.137 178.874 111.303 180.416C113.47 181.999 112.72 184.332 111.553 186.207C106.72 194.082 101.803 201.916 96.8035 209.707C96.0535 210.916 94.7618 211.957 93.4701 212.582C90.2618 214.124 87.4285 211.999 87.6785 207.624Z" fill="black"/>
<path d="M191.804 206.167C191.804 208.042 190.345 209.376 189.262 209.584C187.804 209.876 186.554 209.626 184.47 208.209C183.762 207.751 183.345 206.626 182.929 205.751C179.887 199.167 176.804 192.626 173.845 186.001C173.095 184.376 172.345 182.501 172.47 180.792C172.595 179.251 173.554 177.042 174.804 176.501C176.012 175.959 177.637 175.792 179.554 177.667C180.262 178.334 180.929 179.459 181.387 180.501C184.387 187.459 187.387 194.417 190.304 201.417C190.845 202.751 191.179 204.209 191.804 206.167Z" fill="black"/>
<path d="M59.5536 148.751C57.6369 148.209 56.3869 147.292 56.0953 146.042C55.7203 144.459 56.5119 142.334 57.4286 140.834C58.1369 139.709 59.7619 139.001 61.1369 138.542C68.0119 136.251 74.9286 134.001 81.8869 131.876C83.0536 131.501 84.5536 131.376 85.6786 131.751C87.5119 132.376 88.3036 133.834 86.8036 135.584C85.9703 136.584 85.0119 137.626 83.8869 138.167C77.3869 141.417 70.8453 144.542 64.2619 147.626C63.0536 148.167 61.4286 149.334 59.5536 148.751Z" fill="black"/>
<path d="M200.72 77.2503C199.803 76.8753 199.012 75.3753 198.97 74.3753C198.928 73.0003 199.345 71.3336 200.178 70.2086C204.053 64.8753 208.137 59.6253 212.178 54.417C212.762 53.6253 213.553 53.0003 214.345 52.3753C216.137 51.0003 218.47 49.792 220.053 51.8753C220.97 53.0836 221.262 56.167 220.387 57.2086C215.053 63.7086 209.303 69.917 203.595 76.1253C203.137 76.667 202.22 77.542 200.72 77.2503Z" fill="black"/>
<path d="M67.1371 68.2085C69.4704 68.9168 71.2621 69.3335 72.9704 69.9585C77.9287 71.7502 82.8871 73.5835 87.8037 75.4585C89.1787 76.0002 90.6371 76.5418 91.7621 77.4168C92.5537 78.0418 93.4287 79.6252 93.1371 80.2085C92.6371 81.1668 91.8871 82.3752 90.1787 82.2502C89.4704 82.2085 88.5537 82.1668 87.7621 81.9585C82.1787 80.4585 76.5954 79.0418 71.0537 77.3752C69.1787 76.8335 67.2204 76.0418 65.7204 74.8335C64.6371 73.9585 63.6371 72.0002 63.9287 70.8335C64.1787 69.7502 65.0954 68.2085 67.1371 68.2085Z" fill="black"/>
<path d="M143.387 50.9582C143.345 51.4582 143.304 51.9582 143.137 52.4165C142.429 54.4582 141.97 56.7499 139.095 56.5415C136.054 56.3332 135.929 53.8332 135.97 51.7915C136.095 46.8749 136.554 41.9582 136.929 36.9999C137.095 35.2082 137.304 33.3749 137.804 31.6665C138.304 29.9165 139.012 28.1249 141.429 28.4165C143.679 28.7082 144.429 30.2082 144.47 32.2082C144.47 34.3749 143.804 46.8749 143.387 50.9582Z" fill="black"/>
<defs>
<clipPath id="clip0_124_437">
<rect width="579.943" height="491.274" fill="white" transform="translate(782.55 571.277) rotate(153.71)"/>
</clipPath>
</defs>
</svg>
