<svg width="111" height="115" viewBox="0 0 111 115" fill="none" xmlns="http://www.w3.org/2000/svg">
<g filter="url(#filter0_d_24_199)">
<mask id="mask0_24_199" style="mask-type:alpha" maskUnits="userSpaceOnUse" x="11" y="9" width="93" height="96">
<path d="M54.9632 100.219C52.7586 100.379 50.6813 99.8945 48.6184 99.4266C46.8528 99.0259 45.1088 98.5188 43.3818 97.9699C42.3365 97.6387 41.351 97.1273 40.3281 96.7229C39.6848 96.4677 39.0226 96.2608 38.3697 96.0271C38.1139 95.9354 37.9792 96.0079 37.9157 96.2803C37.8332 96.632 37.729 96.9811 37.6188 97.3267C37.5479 97.5521 37.6178 97.6653 37.8408 97.7199C38.0171 97.763 38.1851 97.8349 38.36 97.8828C39.8363 98.2914 41.1845 98.9749 42.558 99.6482C44.2272 100.468 46.0387 100.999 47.7942 101.643C48.0758 101.747 48.3911 101.757 48.6727 101.861C50.4499 102.519 52.3588 102.457 54.1779 102.877C54.4407 102.938 54.7428 102.878 55.0185 102.827C55.4899 102.737 55.894 102.873 56.0815 103.223C56.2777 103.592 56.1668 104.026 55.784 104.351C55.3789 104.694 54.9157 104.907 54.3754 104.88C53.8487 104.853 53.3239 104.796 52.7992 104.743C52.1852 104.683 51.5694 104.617 50.9564 104.554C50.567 104.513 50.1674 104.513 49.7885 104.423C47.2326 103.81 44.6841 103.165 42.2918 102.036C42.0599 101.927 41.8112 101.841 41.6005 101.7C40.31 100.826 38.8716 100.289 37.3941 99.8424C37.1058 99.7554 36.8133 99.6776 36.5176 99.6231C35.4999 99.438 35.0501 98.8176 35.2896 97.8033C35.4764 97.0109 35.7266 96.233 35.9795 95.4576C36.0688 95.1856 36.0721 94.9912 35.864 94.7679C35.5701 94.4511 35.4362 94.0639 35.6377 93.6404C35.828 93.238 36.1784 93.1179 36.6081 93.1084C36.7333 93.1059 36.924 92.9457 36.9688 92.8183C37.3846 91.6518 37.7768 90.4768 38.1702 89.3039C38.197 89.2216 38.2224 89.1199 38.1983 89.0404C37.6986 87.2925 38.1173 85.5977 38.4864 83.901C38.9095 81.9533 39.3927 80.0192 39.76 78.0609C40.0948 76.2784 40.2727 74.4755 40.0203 72.6543C39.8622 71.5116 39.5033 70.4553 38.8354 69.5068C37.7763 67.9995 36.7992 66.429 35.6553 64.9892C33.081 61.7483 32.2751 58.0514 32.5622 54.0182C33.0151 47.6462 35.3388 41.9745 38.9804 36.7944C39.2652 36.3877 39.5633 35.9709 39.9324 35.6451C41.6584 34.1139 43.4005 32.5994 45.1643 31.1117C45.5619 30.7768 46.0494 30.521 46.5343 30.3232C50.0208 28.906 53.5932 27.7588 57.3922 27.708C61.3773 27.6529 65.2717 28.2707 68.8317 30.1644C71.6046 31.6395 74.0079 33.6493 76.2817 35.8108C77.3094 36.7889 78.3518 37.752 79.4326 38.6708C81.557 40.4753 83.0872 42.6436 83.927 45.3318C84.6893 47.7749 85.2449 50.2216 85.0553 52.8026C84.9306 54.4909 84.2449 55.9751 83.5148 57.457C81.4453 61.6483 78.818 65.46 75.4716 68.7166C73.2356 70.8932 70.8477 72.9229 68.4467 74.9196C66.5095 76.5309 64.7009 78.2496 63.1632 80.244C61.5267 82.3677 60.4084 84.718 59.8907 87.377C59.4227 89.7753 58.7922 92.143 58.2468 94.5279C58.2116 94.6822 58.2444 94.8834 58.3178 95.027C58.6103 95.6044 58.466 96.0458 57.9073 96.3454C57.7341 96.438 57.5701 96.6318 57.4969 96.8168C56.9665 98.1496 56.4752 99.497 55.934 100.825C55.8023 101.149 55.5648 101.45 55.314 101.7C55.2056 101.808 54.9417 101.757 54.7484 101.78C54.7481 101.611 54.7229 101.437 54.7503 101.274C54.8095 100.919 54.8936 100.568 54.967 100.224L54.9632 100.219ZM56.3652 94.0423C56.5019 93.5607 56.6387 93.1639 56.7271 92.755C57.152 90.7767 57.5905 88.7989 57.9761 86.8129C58.5557 83.8326 59.9248 81.244 61.8091 78.9054C63.4351 76.8859 65.3092 75.1253 67.3122 73.4773C69.5969 71.598 71.8582 69.6793 74.0009 67.6423C77.3956 64.4166 79.9367 60.5614 82.0346 56.3799C83.1453 54.1658 83.4465 51.8983 82.982 49.5206C82.7212 48.1915 82.3123 46.8911 81.9259 45.5903C81.2532 43.3247 79.8592 41.5598 78.0507 40.0801C76.9534 39.1826 75.912 38.2162 74.8186 37.3112C73.3779 36.1191 71.926 34.936 70.4504 33.7877C66.6985 30.8643 62.3066 29.9343 57.6887 29.8858C54.0947 29.8478 50.7304 30.9746 47.4306 32.2822C47.0975 32.4142 46.759 32.5895 46.4905 32.8228C44.769 34.3138 43.0529 35.8098 41.3664 37.3419C40.9725 37.7003 40.6768 38.1818 40.382 38.6358C37.3857 43.2418 35.3996 48.2053 35.0032 53.7445C34.745 57.3469 35.3454 60.6776 37.6329 63.6072C38.6713 64.9375 39.5235 66.4121 40.5213 67.7758C42.0404 69.8493 42.5437 72.2 42.5205 74.7002C42.4955 77.3591 41.9618 79.9462 41.3662 82.526C41.0101 84.0674 40.7142 85.6276 40.4728 87.1911C40.3235 88.1619 40.4493 88.2668 41.3524 88.6423C41.4221 88.6708 41.4928 88.696 41.5645 88.7233C42.7202 89.1654 43.8651 89.639 45.0358 90.0404C45.97 90.3609 46.9371 90.5903 47.9083 90.866C47.9736 89.0398 48.434 87.3016 48.8488 85.5538C49.257 83.8353 49.6508 82.1127 50.0541 80.3929C50.3893 78.9683 50.6924 77.5346 51.0792 76.123C51.6219 74.1436 52.2627 72.1903 52.7927 70.2072C52.9976 69.4425 53.3727 69.0406 54.1571 68.9451C56.3663 68.6782 57.9258 67.4594 59.0266 65.5727C59.973 63.9499 60.1359 62.2793 59.397 60.5396C59.3362 60.3944 59.2516 60.2597 59.1648 60.0968C58.9916 60.2378 58.8716 60.3559 58.7329 60.4427C58.0565 60.8645 57.4115 61.3644 56.6874 61.6741C55.4727 62.1955 54.2249 61.8345 53.3587 60.8539C52.2532 59.6014 52.6068 57.6063 54.1072 56.8824C55.3875 56.2637 56.7225 56.1775 58.0518 56.7692C59.128 57.2475 59.1257 57.2555 59.7412 56.232C59.8034 56.1287 59.8596 56.0219 59.9174 55.9156C60.5177 54.8117 60.6741 53.6027 60.775 52.3761C60.8083 51.9724 60.8571 51.5627 60.9595 51.1716C61.0568 50.7981 61.3173 50.5384 61.739 50.5267C62.1744 50.5154 62.4513 50.7582 62.5904 51.1452C62.6765 51.384 62.7313 51.6416 62.7512 51.8945C62.9392 54.3631 62.3577 56.6012 60.7088 58.5001C60.5027 58.7389 60.4532 58.9133 60.6114 59.2089C61.1131 60.1397 61.3785 61.1417 61.3647 62.2079C61.3394 64.2218 60.4939 65.8975 59.281 67.4481C58.2587 68.7537 56.9519 69.5204 55.3345 69.7979C54.9928 69.8566 54.6551 69.9561 54.3104 69.9827C53.9924 70.0066 53.915 70.1575 53.9068 70.4422C53.8828 71.3309 53.9262 72.2319 53.7882 73.1021C53.3921 75.5761 52.8867 78.0329 52.4826 80.5046C51.9201 83.9428 50.7552 87.1944 49.5019 90.4227C49.3784 90.7421 49.2705 91.0676 49.1541 91.3924C51.4207 92.7324 53.9612 93.1318 56.3634 94.0366L56.3652 94.0423ZM38.7759 93.7184C39.3195 93.9108 39.8427 94.0592 40.3375 94.2775C41.7992 94.9205 43.1796 95.7341 44.7448 96.1524C47.5731 96.9084 50.3796 97.7412 53.2042 98.5099C53.7772 98.6656 54.3902 98.6685 54.9827 98.7554C55.235 98.7924 55.3294 98.6912 55.3793 98.4547C55.5127 97.82 55.6514 97.1851 55.8209 96.5573C55.9079 96.2327 55.8211 96.106 55.5006 96.0168C54.2483 95.6718 52.9937 95.3347 51.7611 94.9262C50.7605 94.5955 49.7934 94.1655 48.8106 93.7845C48.0116 93.4748 47.2162 93.1522 46.4072 92.8656C45.413 92.5125 44.4029 92.2034 43.408 91.8467C42.107 91.3807 40.8174 90.8868 39.513 90.4024C39.2721 91.489 39.0275 92.5883 38.7764 93.7169L38.7759 93.7184ZM57.6378 58.6848C56.908 58.125 55.6752 58.1071 55.063 58.5644C54.7249 58.8177 54.68 59.2562 55.032 59.4719C55.2767 59.6209 55.6683 59.758 55.8941 59.663C56.4904 59.4138 57.0318 59.035 57.6362 58.6844L57.6378 58.6848Z" fill="black"/>
<path d="M76.5601 29.4135C76.9488 28.1597 77.4883 27.2029 78.1603 26.3217C79.8237 24.14 81.4958 21.9641 83.1711 19.7892C83.382 19.5154 83.6093 19.2445 83.8737 19.0256C84.0999 18.8374 84.3729 18.6677 84.6533 18.5934C85.4128 18.3905 85.9936 18.9513 85.8145 19.7165C85.7408 20.031 85.5782 20.3358 85.4087 20.6162C84.1272 22.7559 82.6664 24.76 81.0118 26.6365C80.0993 27.6707 79.3802 28.8705 78.5462 29.9754C78.2248 30.4012 77.8607 30.813 77.4451 31.1446C77.2749 31.2813 76.8623 31.2852 76.667 31.1693C76.497 31.0674 76.4046 30.711 76.4089 30.4702C76.4169 30.0523 76.5244 29.6368 76.5601 29.4135Z" fill="black"/>
<path d="M18.8156 73.4222C19.5727 73.1789 20.4202 72.9094 21.2655 72.6358C22.6327 72.1922 24.0352 72.0387 25.4642 72.1452C25.8044 72.1709 26.1502 72.2621 26.4705 72.3824C26.847 72.5238 27.1006 72.8119 27.1025 73.2377C27.1054 73.6725 26.8839 73.99 26.4883 74.1595C26.2693 74.2547 26.0309 74.3271 25.7948 74.3552C23.851 74.5884 21.9815 75.1021 20.1434 75.7613C19.4927 75.995 18.8124 76.1563 18.1337 76.2939C17.7888 76.3638 17.4039 76.3738 17.0599 76.3004C15.9435 76.0614 15.5025 74.8557 16.1725 73.9324C16.6953 73.2112 17.4619 73.0259 18.2894 73.0464C18.4439 73.0504 18.5943 73.2574 18.814 73.4217L18.8156 73.4222Z" fill="black"/>
<path d="M103.095 29.6759C103.279 29.8855 103.57 30.0718 103.605 30.2977C103.64 30.5257 103.484 30.8581 103.303 31.028C103.058 31.2559 102.722 31.4059 102.4 31.5274C99.8814 32.4706 97.3926 33.4793 95.0063 34.7297C93.9114 35.3042 92.745 35.6492 91.5062 35.7437C91.0928 35.775 90.6937 35.7741 90.4967 35.3413C90.2944 34.8966 90.527 34.5339 90.8507 34.2644C91.1003 34.0552 91.4068 33.907 91.7031 33.7646C92.7497 33.2629 93.8268 32.8183 94.8493 32.2734C97.0249 31.1135 99.2922 30.2339 101.721 29.7907C102.145 29.7141 102.584 29.7174 103.093 29.677L103.095 29.6759Z" fill="black"/>
<path d="M13.2184 52.1574C12.8712 52.0589 12.5118 51.9914 12.1786 51.8554C11.5511 51.5995 11.2569 51.1011 11.3617 50.5551C11.4647 50.0155 11.9273 49.6282 12.601 49.6482C13.2458 49.6669 13.8936 49.754 14.5278 49.8769C16.1696 50.1959 17.8164 50.5094 19.4399 50.9114C20.5383 51.1833 21.6433 51.2376 22.7568 51.2614C23.161 51.2689 23.4726 51.3954 23.5962 51.8005C23.727 52.2352 23.5494 52.5807 23.1925 52.8149C22.5058 53.2666 21.7245 53.4857 20.9196 53.4647C20.111 53.4445 19.298 53.3365 18.4993 53.1962C16.732 52.8866 14.9723 52.5324 13.2107 52.1967L13.2212 52.1599L13.2184 52.1574Z" fill="black"/>
<path d="M35.1257 25.9115C32.8583 24.6837 30.2712 23.9736 28.2863 22.1465C27.8309 21.7285 27.3274 21.3644 26.8629 20.9542C26.6748 20.7884 26.4935 20.5866 26.386 20.3624C26.1156 19.7981 26.4881 19.1985 27.1112 19.2387C27.4729 19.2618 27.8471 19.3992 28.1739 19.5697C28.6278 19.804 29.0653 20.0838 29.4641 20.4027C30.5586 21.2734 31.7649 21.9391 33.0047 22.5779C34.1544 23.1687 35.2386 23.8931 36.3467 24.5637C36.6726 24.7617 36.857 25.0439 36.7364 25.4385C36.6185 25.8234 36.3117 25.9784 35.9377 25.9864C35.6853 25.9925 35.4318 25.9413 35.1257 25.9115Z" fill="black"/>
<path d="M57.86 20.0348C57.7866 20.1471 57.6859 20.3986 57.5052 20.56C57.1079 20.9123 56.5367 20.6344 56.4605 20.056C56.3552 19.2637 56.2708 18.4704 56.1838 17.6746C55.9573 15.591 55.7293 13.507 55.5154 11.4218C55.4782 11.0654 55.4408 10.6796 55.5416 10.3487C55.6213 10.086 55.8728 9.80297 56.1223 9.68533C56.462 9.52412 56.7612 9.77329 56.9559 10.0619C57.0801 10.2459 57.1844 10.457 57.2426 10.6723C58.03 13.5877 58.2011 16.5546 57.9483 19.5533C57.9384 19.6733 57.9053 19.7901 57.86 20.0348Z" fill="black"/>
<path d="M92.2255 61.409C93.4798 61.5765 94.7377 61.7191 95.9861 61.9196C96.8045 62.0515 97.6117 62.253 98.4167 62.4503C98.6898 62.5175 98.9587 62.6422 99.2002 62.7902C99.5582 63.0094 99.7632 63.3407 99.703 63.7783C99.6405 64.2361 99.3482 64.5231 98.9165 64.6063C98.5673 64.6732 98.1879 64.7124 97.8428 64.6491C96.1659 64.3443 94.4925 64.0147 92.8255 63.6626C92.0457 63.4983 91.3405 63.1443 90.7953 62.5435C90.4856 62.2032 90.1591 61.7821 90.4199 61.3322C90.6718 60.8954 91.177 61.1011 91.5833 61.1559C91.8047 61.1858 92.0199 61.2746 92.2375 61.3363L92.2275 61.4078L92.2255 61.409Z" fill="black"/>
<path d="M88.5557 86.6326C88.2001 86.3934 87.8928 86.2456 87.6573 86.0215C86.5421 84.9616 85.3996 83.925 84.3638 82.7926C83.7623 82.1343 83.3172 81.3268 82.8511 80.5566C82.5365 80.0386 82.5131 79.4389 82.6025 78.8436C82.6637 78.4391 82.8915 78.343 83.1822 78.6226C83.5829 79.0077 83.9599 79.4156 84.3364 79.825C85.1101 80.6687 85.8742 81.5217 86.6433 82.3693C87.3625 83.1613 88.0975 83.9404 88.7985 84.7479C89.0228 85.0052 89.2148 85.3155 89.3246 85.6354C89.4022 85.8614 89.4085 86.2229 89.2761 86.3789C89.1281 86.553 88.7868 86.5616 88.5573 86.6331L88.5557 86.6326Z" fill="black"/>
</mask>
<g mask="url(#mask0_24_199)">
<rect x="11.064" y="9.46124" width="121.262" height="120.576" fill="white"/>
</g>
</g>
<defs>
<filter id="filter0_d_24_199" x="7.34082" y="9.63455" width="100.269" height="103.247" filterUnits="userSpaceOnUse" color-interpolation-filters="sRGB">
<feFlood flood-opacity="0" result="BackgroundImageFix"/>
<feColorMatrix in="SourceAlpha" type="matrix" values="0 0 0 0 0 0 0 0 0 0 0 0 0 0 0 0 0 0 127 0" result="hardAlpha"/>
<feOffset dy="4"/>
<feGaussianBlur stdDeviation="2"/>
<feComposite in2="hardAlpha" operator="out"/>
<feColorMatrix type="matrix" values="0 0 0 0 0 0 0 0 0 0 0 0 0 0 0 0 0 0 0.25 0"/>
<feBlend mode="normal" in2="BackgroundImageFix" result="effect1_dropShadow_24_199"/>
<feBlend mode="normal" in="SourceGraphic" in2="effect1_dropShadow_24_199" result="shape"/>
</filter>
</defs>
</svg>
