<svg width="21" height="21" viewBox="0 0 21 21" fill="none" xmlns="http://www.w3.org/2000/svg">
<path d="M16.1505 4.31205C15.9132 4.31205 15.6812 4.38243 15.4839 4.51429C15.2865 4.64615 15.1327 4.83356 15.0419 5.05283C14.9511 5.2721 14.9273 5.51338 14.9736 5.74616C15.0199 5.97894 15.1342 6.19276 15.302 6.36058C15.4698 6.5284 15.6837 6.64269 15.9164 6.68899C16.1492 6.7353 16.3905 6.71153 16.6098 6.62071C16.829 6.52988 17.0165 6.37607 17.1483 6.17874C17.2802 5.9814 17.3505 5.74939 17.3505 5.51205C17.3505 5.19379 17.2241 4.88857 16.9991 4.66352C16.774 4.43848 16.4688 4.31205 16.1505 4.31205ZM20.7505 6.73205C20.7311 5.90235 20.5757 5.08145 20.2905 4.30205C20.0363 3.63518 19.6405 3.03133 19.1305 2.53205C18.6354 2.01948 18.0301 1.62623 17.3605 1.38205C16.5832 1.08821 15.7614 0.929261 14.9305 0.912051C13.8705 0.852051 13.5305 0.852051 10.8105 0.852051C8.09055 0.852051 7.75055 0.852051 6.69055 0.912051C5.8597 0.929261 5.03789 1.08821 4.26055 1.38205C3.59222 1.6287 2.98748 2.02161 2.49055 2.53205C1.97797 3.02723 1.58472 3.63249 1.34055 4.30205C1.04671 5.07939 0.887757 5.9012 0.870547 6.73205C0.810547 7.79205 0.810547 8.13205 0.810547 10.8521C0.810547 13.5721 0.810547 13.9121 0.870547 14.9721C0.887757 15.8029 1.04671 16.6247 1.34055 17.4021C1.58472 18.0716 1.97797 18.6769 2.49055 19.1721C2.98748 19.6825 3.59222 20.0754 4.26055 20.3221C5.03789 20.6159 5.8597 20.7748 6.69055 20.7921C7.75055 20.8521 8.09055 20.8521 10.8105 20.8521C13.5305 20.8521 13.8705 20.8521 14.9305 20.7921C15.7614 20.7748 16.5832 20.6159 17.3605 20.3221C18.0301 20.0779 18.6354 19.6846 19.1305 19.1721C19.6428 18.6746 20.0389 18.0702 20.2905 17.4021C20.5757 16.6226 20.7311 15.8018 20.7505 14.9721C20.7505 13.9121 20.8105 13.5721 20.8105 10.8521C20.8105 8.13205 20.8105 7.79205 20.7505 6.73205ZM18.9505 14.8521C18.9433 15.4868 18.8283 16.1158 18.6105 16.7121C18.4509 17.1472 18.1944 17.5405 17.8605 17.8621C17.5362 18.1926 17.1438 18.4485 16.7105 18.6121C16.1142 18.8298 15.4853 18.9448 14.8505 18.9521C13.8505 19.0021 13.4805 19.0121 10.8505 19.0121C8.22055 19.0121 7.85055 19.0121 6.85055 18.9521C6.19144 18.9644 5.53514 18.8629 4.91055 18.6521C4.49633 18.4801 4.1219 18.2248 3.81055 17.9021C3.47864 17.5808 3.22539 17.1872 3.07055 16.7521C2.8264 16.1472 2.69099 15.504 2.67055 14.8521C2.67055 13.8521 2.61055 13.4821 2.61055 10.8521C2.61055 8.22205 2.61055 7.85205 2.67055 6.85205C2.67503 6.20311 2.7935 5.56 3.02055 4.95205C3.19659 4.52996 3.46681 4.15371 3.81055 3.85205C4.11436 3.50822 4.48983 3.23515 4.91055 3.05205C5.5201 2.83209 6.16254 2.71713 6.81055 2.71205C7.81055 2.71205 8.18055 2.65205 10.8105 2.65205C13.4405 2.65205 13.8105 2.65205 14.8105 2.71205C15.4453 2.71933 16.0743 2.8343 16.6705 3.05205C17.125 3.2207 17.5328 3.4949 17.8605 3.85205C18.1882 4.15923 18.4443 4.53478 18.6105 4.95205C18.8328 5.56098 18.9478 6.20383 18.9505 6.85205C19.0005 7.85205 19.0105 8.22205 19.0105 10.8521C19.0105 13.4821 19.0005 13.8521 18.9505 14.8521ZM10.8105 5.72205C9.79636 5.72403 8.80551 6.02658 7.9632 6.59147C7.12089 7.15636 6.46493 7.95825 6.07818 8.8958C5.69144 9.83336 5.59127 10.8645 5.79034 11.859C5.98941 12.8534 6.47878 13.7666 7.19662 14.483C7.91446 15.1995 8.82856 15.6871 9.82341 15.8842C10.8183 16.0813 11.8492 15.9792 12.786 15.5906C13.7228 15.202 14.5234 14.5445 15.0867 13.7011C15.6499 12.8577 15.9505 11.8662 15.9505 10.8521C15.9519 10.1772 15.8198 9.50866 15.5618 8.88501C15.3038 8.26136 14.9251 7.69486 14.4474 7.2181C13.9697 6.74134 13.4025 6.36373 12.7783 6.10698C12.1542 5.85023 11.4854 5.71941 10.8105 5.72205ZM10.8105 14.1821C10.1519 14.1821 9.50811 13.9867 8.9605 13.6208C8.41288 13.2549 7.98607 12.7349 7.73403 12.1264C7.48199 11.5179 7.41604 10.8484 7.54453 10.2024C7.67302 9.55644 7.99017 8.96309 8.45588 8.49739C8.92159 8.03168 9.51494 7.71452 10.1609 7.58604C10.8069 7.45755 11.4764 7.52349 12.0849 7.77553C12.6934 8.02757 13.2134 8.45439 13.5793 9.002C13.9452 9.54962 14.1405 10.1934 14.1405 10.8521C14.1405 11.2894 14.0544 11.7224 13.8871 12.1264C13.7197 12.5304 13.4744 12.8975 13.1652 13.2067C12.856 13.5159 12.4889 13.7612 12.0849 13.9286C11.6809 14.0959 11.2478 14.1821 10.8105 14.1821Z" fill="black"/>
</svg>
