<svg width="22" height="22" viewBox="0 0 22 22" fill="none" xmlns="http://www.w3.org/2000/svg">
<path d="M16.0163 7.58338C15.1211 7.583 14.2397 7.80444 13.4509 8.22791C13.3789 8.03834 13.251 7.87515 13.084 7.76002C12.9171 7.6449 12.7191 7.58329 12.5163 7.58338H8.51633C8.38498 7.58331 8.25492 7.60912 8.13356 7.65935C8.0122 7.70958 7.90193 7.78323 7.80905 7.87611C7.71618 7.96898 7.64252 8.07925 7.5923 8.20061C7.54207 8.32197 7.51625 8.45204 7.51633 8.58338V20.5834C7.51625 20.7147 7.54207 20.8448 7.59229 20.9662C7.64252 21.0875 7.71618 21.1978 7.80905 21.2907C7.90192 21.3835 8.01219 21.4572 8.13355 21.5074C8.25491 21.5576 8.38498 21.5835 8.51633 21.5834H12.5163C12.6477 21.5835 12.7777 21.5576 12.8991 21.5074C13.0205 21.4572 13.1307 21.3835 13.2236 21.2907C13.3165 21.1978 13.3901 21.0875 13.4404 20.9662C13.4906 20.8448 13.5164 20.7147 13.5163 20.5834V15.0834C13.5163 14.8182 13.6217 14.5638 13.8092 14.3763C13.9968 14.1887 14.2511 14.0834 14.5163 14.0834C14.7815 14.0834 15.0359 14.1887 15.2234 14.3763C15.411 14.5638 15.5163 14.8182 15.5163 15.0834V20.5834C15.5163 20.7147 15.5421 20.8448 15.5923 20.9662C15.6425 21.0875 15.7162 21.1978 15.8091 21.2907C15.9019 21.3835 16.0122 21.4572 16.1336 21.5074C16.2549 21.5576 16.385 21.5835 16.5163 21.5834H20.5163C20.6477 21.5835 20.7777 21.5576 20.8991 21.5074C21.0205 21.4572 21.1307 21.3835 21.2236 21.2907C21.3165 21.1978 21.3901 21.0875 21.4404 20.9662C21.4906 20.8448 21.5164 20.7147 21.5163 20.5834V13.0834C21.5145 11.6252 20.9345 10.2274 19.9034 9.1963C18.8724 8.16524 17.4745 7.58519 16.0163 7.58338ZM19.5163 19.5834H17.5163V15.0834C17.5163 14.2877 17.2003 13.5247 16.6376 12.9621C16.075 12.3995 15.312 12.0834 14.5163 12.0834C13.7207 12.0834 12.9576 12.3995 12.395 12.9621C11.8324 13.5247 11.5163 14.2877 11.5163 15.0834V19.5834H9.51633V9.58338H11.5163V10.2865C11.5164 10.4937 11.5809 10.6958 11.7008 10.8648C11.8207 11.0338 11.99 11.1614 12.1856 11.23C12.3811 11.2986 12.5931 11.3048 12.7923 11.2477C12.9915 11.1907 13.168 11.0732 13.2976 10.9115C13.7464 10.3415 14.3619 9.92595 15.0583 9.72275C15.7547 9.51956 16.4972 9.5389 17.1821 9.77809C17.8669 10.0173 18.46 10.4644 18.8785 11.0569C19.297 11.6495 19.52 12.358 19.5163 13.0834V19.5834ZM5.51633 7.58338H1.51633C1.38499 7.58331 1.25492 7.60912 1.13356 7.65935C1.0122 7.70958 0.901928 7.78323 0.809054 7.87611C0.716181 7.96898 0.642524 8.07925 0.592296 8.20061C0.542068 8.32197 0.516253 8.45204 0.516328 8.58338V20.5834C0.516252 20.7147 0.542066 20.8448 0.592293 20.9662C0.642521 21.0875 0.716178 21.1978 0.809051 21.2907C0.901925 21.3835 1.01219 21.4572 1.13355 21.5074C1.25491 21.5576 1.38498 21.5835 1.51633 21.5834H5.51633C5.64767 21.5835 5.77774 21.5576 5.8991 21.5074C6.02046 21.4572 6.13073 21.3835 6.22361 21.2907C6.31648 21.1978 6.39014 21.0875 6.44036 20.9662C6.49059 20.8448 6.5164 20.7147 6.51633 20.5834V8.58338C6.5164 8.45204 6.49059 8.32197 6.44036 8.20061C6.39013 8.07925 6.31648 7.96898 6.2236 7.87611C6.13073 7.78323 6.02046 7.70958 5.8991 7.65935C5.77774 7.60912 5.64767 7.58331 5.51633 7.58338ZM4.51633 19.5834H2.51633V9.58338H4.51633V19.5834ZM3.53098 0.126382C3.09334 0.100185 2.65494 0.163279 2.24245 0.311827C1.82996 0.460374 1.452 0.69127 1.13155 0.990475C0.811091 1.28968 0.554844 1.65094 0.378387 2.05228C0.20193 2.45363 0.108951 2.88667 0.105105 3.32507C0.101259 3.76348 0.186625 4.19809 0.356013 4.60246C0.525401 5.00684 0.77527 5.37254 1.09043 5.67732C1.40558 5.9821 1.77944 6.2196 2.18926 6.37536C2.59908 6.53112 3.0363 6.6019 3.47433 6.58338H3.50265C3.94145 6.60945 4.38095 6.54577 4.7943 6.39623C5.20766 6.2467 5.58618 6.01446 5.90675 5.71369C6.22731 5.41293 6.48319 5.04996 6.65874 4.64696C6.83428 4.24397 6.92582 3.80941 6.92775 3.36984C6.92967 2.93028 6.84195 2.49493 6.66995 2.09041C6.49794 1.68589 6.24526 1.32069 5.92735 1.01713C5.60943 0.713562 5.23296 0.478006 4.82093 0.324854C4.40891 0.171701 3.96999 0.104169 3.53098 0.126382ZM3.50266 4.58338H3.47433C3.3014 4.60438 3.12597 4.58816 2.95982 4.53581C2.79367 4.48346 2.64063 4.39619 2.51097 4.27985C2.38131 4.16351 2.27803 4.02079 2.20804 3.86126C2.13806 3.70173 2.10299 3.52908 2.1052 3.35489C2.1052 2.60879 2.66477 2.12637 3.53098 2.12637C3.70568 2.10308 3.88334 2.1175 4.05199 2.16866C4.22065 2.21981 4.37639 2.30651 4.50871 2.42292C4.64104 2.53934 4.74688 2.68275 4.81912 2.84351C4.89135 3.00428 4.92829 3.17865 4.92746 3.35489C4.92746 4.10098 4.36789 4.58338 3.50266 4.58338Z" fill="black"/>
</svg>
