<svg width="82" height="108" viewBox="0 0 82 108" fill="none" xmlns="http://www.w3.org/2000/svg">
<mask id="mask0_24_260" style="mask-type:alpha" maskUnits="userSpaceOnUse" x="11" y="4" width="67" height="98">
<path d="M33.1433 39.1685C33.6447 37.6645 34.1789 36.0797 34.2232 34.3426C34.2412 33.5879 34.0026 33.1631 33.5828 32.6267C31.5421 30.0176 29.4989 27.4067 27.5658 24.7168C25.8065 22.2711 24.2103 19.7141 22.9684 16.9519C22.1577 15.1473 21.7688 13.2586 21.8903 11.2878C21.9975 9.52328 22.7 8.09104 24.4891 7.49633C25.0805 7.29976 25.7757 7.2494 26.3957 7.33275C29.1708 7.70714 31.5625 8.89408 33.5215 10.9094C35.7204 13.1704 37.9081 15.4448 40.1012 17.7114C40.1961 17.8095 40.3008 17.8989 40.4704 18.058C40.4131 16.8916 40.2975 15.8152 40.3251 14.7419C40.3589 13.2941 40.4017 11.8333 40.6253 10.4073C40.9054 8.62241 41.8536 7.13386 43.1092 5.84022C44.0297 4.89311 45.1973 4.41677 46.4585 4.30348C47.0444 4.25048 47.7401 4.51233 48.2668 4.82778C50.5126 6.17043 51.755 8.29206 52.6514 10.6762C53.4637 12.8359 53.6103 15.0835 53.7177 17.3519C53.7912 18.9158 53.7571 20.461 53.4592 22.0002C53.3526 22.5561 53.2582 23.1165 53.2166 23.6809C53.0565 25.8738 52.4392 27.9694 51.8593 30.0717C51.7585 30.4364 51.8124 30.6687 52.0426 30.9366C53.7294 32.8999 55.4437 34.84 57.0672 36.8534C57.7293 37.6736 58.2773 38.0689 59.4653 37.8649C61.8145 37.4595 63.9802 38.2285 65.751 39.8097C66.9207 40.8538 68.0596 41.9896 68.9629 43.2612C71.1074 46.2768 72.7642 49.5605 73.6178 53.1949C74.4367 56.6773 75.335 60.1475 75.9948 63.6635C76.4926 66.3198 76.7396 69.0289 76.9662 71.7258C77.1593 74.0169 77.1586 76.3255 77.2536 78.6256C77.2727 79.0883 77.3298 79.5485 77.3957 80.0072C77.5851 81.3259 77.3324 82.5309 76.5579 83.6323C75.8971 84.5749 75.2984 85.5604 74.6397 86.5025C74.2594 87.0474 73.8309 87.565 73.3949 88.0658C71.8726 89.8201 70.3357 91.5568 68.4542 92.9583C67.2404 93.8618 66.1419 94.9252 64.9054 95.7921C60.4977 98.8829 55.7142 100.936 50.2174 101.024C48.9097 101.044 47.6052 101.427 46.2988 101.418C42.9324 101.389 39.6304 100.822 36.3382 100.11C33.9303 99.5887 31.7108 98.7233 29.5998 97.4736C27.9665 96.5076 26.2614 95.6566 24.5715 94.7893C23.1013 94.0333 21.7829 93.0798 20.585 91.9436C17.1325 88.6742 14.9014 84.7036 13.6002 80.1463C12.6237 76.7312 12.2754 73.2712 12.1435 69.7309C11.9718 65.0709 12.0376 60.3967 11.5012 55.7491C11.2779 53.812 11.1742 51.8485 11.1748 49.8975C11.174 47.6798 11.6544 45.5165 12.3857 43.4249C13.0637 41.4879 14.2789 39.998 16.2468 39.2416C16.6148 39.0995 17.0358 39.0111 17.4279 39.0253C19.4844 39.099 21.4722 39.3913 22.9677 41.1633C23.093 40.4999 23.1596 39.9355 23.3074 39.3947C24.1427 36.2883 26.2858 35.1037 29.1914 35.3863C29.8209 35.4475 30.5175 35.9242 30.9772 36.4058C31.7929 37.2613 32.4484 38.2683 33.1359 39.1653L33.1433 39.1685ZM13.8042 59.1226C13.8466 60.6651 13.8425 62.1392 13.9372 63.6088C14.0514 65.3825 14.3571 67.1506 14.3918 68.9231C14.4679 72.7769 15.1451 76.5116 16.1851 80.2115C17.3695 84.4281 19.7038 87.8616 23.0335 90.6329C23.9715 91.4139 25.0625 92.0288 26.135 92.6291C27.5439 93.4211 29.0298 94.0769 30.4351 94.8742C32.5257 96.0619 34.6736 96.9812 37.0835 97.3772C41.224 98.0583 45.3429 98.7456 49.5428 97.9335C49.8185 97.8807 50.1077 97.8889 50.3894 97.8689C52.2057 97.7445 54.0131 97.6081 55.7535 96.9703C58.8756 95.8259 61.7535 94.251 64.3867 92.2299C65.1076 91.6769 65.7245 90.9891 66.4552 90.4524C68.2464 89.1399 69.7602 87.5365 71.192 85.8688C72.2001 84.6952 73.0407 83.3735 73.9359 82.1028C74.0549 81.9362 74.1074 81.6912 74.1143 81.4817C74.1808 79.3218 74.3461 77.1574 74.2662 75.0017C74.0312 68.821 73.095 62.7326 71.6294 56.7207C70.847 53.5123 70.0209 50.3367 68.3754 47.4244C67.2297 45.3982 65.9465 43.4991 64.1329 42.0184C62.5242 40.7039 60.7185 40.2312 58.6879 40.9788C57.8922 41.2716 57.0944 41.6146 56.2652 41.7619C53.3864 42.2688 50.791 43.6177 48.0244 44.4525C47.8654 44.4997 47.6922 44.7284 47.6535 44.9006C47.4444 45.8487 46.918 46.1284 46.0177 45.7637C45.8489 45.6951 45.5779 45.6995 45.4313 45.7897C43.6305 46.9138 41.7898 47.9933 40.5987 49.8499C40.4704 50.0522 40.2893 50.2257 40.1109 50.3896C39.1662 51.2665 38.8515 52.3923 38.8326 53.6247C38.8066 55.3132 40.0278 56.8616 41.5289 56.8832C42.8369 56.9016 44.1615 56.813 45.4526 56.6037C47.5732 56.2606 49.2701 55.0015 50.9602 53.78C51.5842 53.3285 52.1593 53.2163 52.6943 53.5529C53.206 53.8733 53.4316 54.4748 53.2593 55.1536C52.7336 57.2301 52.1722 59.2974 51.6723 61.3782C50.7657 65.1472 50.6091 68.9418 51.5248 72.7301C52.2503 75.7271 53.7361 78.4107 55.2292 81.0726C55.8682 82.2116 56.8595 83.0734 57.9509 83.8014C58.9005 84.4355 59.9261 84.8292 61.0852 84.7641C62.3339 84.6938 63.5803 84.5742 64.8304 84.524C65.1094 84.5137 65.5327 84.624 65.6453 84.8184C65.7621 85.0233 65.6779 85.4664 65.5154 85.6795C65.2818 85.9871 64.936 86.2881 64.5757 86.4106C62.1584 87.2358 59.7288 87.5608 57.3247 86.3558C55.1031 85.2441 53.4023 83.5753 52.2391 81.3916C51.3756 79.7687 50.5506 78.1205 49.7933 76.4464C48.8264 74.3083 48.3099 72.0447 48.1947 69.6963C48.0149 66.0312 48.2734 62.4216 49.5232 58.9315C49.6309 58.6289 49.673 58.3021 49.7798 57.8344C47.3261 59.2275 44.827 59.6309 42.2103 59.6145C39.972 59.5989 38.2462 58.7834 37.1347 56.8076C36.8592 56.3171 36.6348 55.797 36.3959 55.3089C36.1082 56.2238 35.8442 57.1322 35.5324 58.0266C34.9221 59.7769 33.6363 60.6959 31.7978 60.761C31.0711 60.7877 30.3401 60.8152 29.6202 60.9041C28.2383 61.0757 27.1146 60.6161 26.1992 59.6001C25.9348 59.3068 25.6922 58.9959 25.3961 58.6405C25.358 58.8285 25.3339 58.9439 25.3097 59.0592C24.8404 61.32 22.7947 62.962 20.4879 62.8821C18.065 62.7985 16.1048 61.7294 14.4966 59.9599C14.2558 59.6963 14.0402 59.4098 13.7986 59.1169L13.8042 59.1226ZM56.7771 38.5835C56.189 38.0439 55.6804 37.6166 55.2198 37.1419C52.7474 34.6119 50.2849 32.0732 47.8223 29.5346C42.4722 24.0169 37.1398 18.4846 31.763 12.9944C30.9525 12.1674 30.0113 11.3938 28.9923 10.863C28.0508 10.3723 26.9313 10.1835 25.868 9.97995C25.2155 9.85503 24.8431 10.2084 24.7402 10.8835C24.6687 11.3583 24.668 11.8496 24.6863 12.3328C24.7644 14.5522 25.6621 16.5107 26.8354 18.3168C28.9685 21.6038 31.1093 24.8961 33.4466 28.0371C34.9721 30.0842 36.847 31.875 38.5778 33.7691C40.9773 36.3963 43.3941 39.0067 45.7901 41.639C46.045 41.9182 46.2424 42.0065 46.6123 41.8618C47.4787 41.5221 48.3719 41.2544 49.2429 40.9274C51.3617 40.1297 53.4539 39.2487 55.7186 38.9132C56.0317 38.8671 56.3321 38.7261 56.7818 38.5849L56.7771 38.5835ZM25.7211 51.3004C25.8988 52.0238 26.0766 53.0685 26.4204 54.0556C26.8307 55.232 27.3397 56.379 27.8911 57.4978C28.262 58.2492 28.9191 58.5724 29.8111 58.434C30.4454 58.3359 31.1008 58.3652 31.7464 58.3534C32.4847 58.3404 32.9901 58.0328 33.3135 57.3376C33.9521 55.9646 34.0798 54.5222 34.151 53.0314C34.282 50.2712 34.1199 47.5806 32.8812 45.0464C32.7865 44.851 32.7195 44.6211 32.7161 44.4045C32.7102 44.1498 32.7053 43.8384 32.8411 43.6528C33.0544 43.358 32.9727 43.1467 32.8389 42.886C32.5637 42.348 32.3472 41.7721 32.023 41.2634C31.3086 40.145 30.5571 39.0469 29.7822 37.969C29.6087 37.7269 29.2921 37.5065 29.0043 37.4438C27.62 37.1451 25.9199 38.1264 25.671 39.5004C25.3557 41.242 25.0543 43.0217 25.073 44.7813C25.0967 46.8522 25.4687 48.9205 25.7229 51.2978L25.7211 51.3004ZM24.6691 57.2189C24.3936 56.3573 24.1189 55.5747 23.896 54.7782C22.9367 51.3577 22.9041 47.8286 22.7039 44.3235C22.6722 43.7793 22.525 43.3717 22.1609 42.979C21.1692 41.9046 19.8997 41.5894 18.5046 41.4783C17.5532 41.4035 16.7674 41.6516 16.1754 42.3642C15.78 42.8395 15.366 43.3612 15.1761 43.9323C13.9864 47.5155 13.5498 51.1418 14.8131 54.8121C15.4755 56.7345 16.4504 58.4592 18.3423 59.4028C20.593 60.525 21.7158 60.0885 22.7819 58.4403C23.211 57.7778 23.7799 57.2731 24.667 57.2193L24.6691 57.2189ZM49.8705 28.2769C50.0691 27.5434 50.2886 26.9488 50.3847 26.3359C50.9446 22.7889 51.6304 19.2618 51.2453 15.6252C51.0799 14.0668 50.8791 12.5375 50.3382 11.0681C49.7078 9.35724 48.8747 7.77624 47.2774 6.74707C47.082 6.61992 46.7988 6.43414 46.6305 6.49212C45.9521 6.72047 45.1949 6.90214 44.6686 7.34254C43.7156 8.13717 43.0024 9.17756 42.7347 10.4238C42.5024 11.5051 42.3091 12.602 42.2094 13.702C42.048 15.4674 41.9996 17.2438 41.8526 19.0134C41.8197 19.4154 41.879 19.6897 42.15 19.9818C44.2859 22.2702 46.4066 24.575 48.535 26.8716C48.9442 27.3127 49.3631 27.7451 49.8683 28.2773L49.8705 28.2769ZM36.6135 50.7834C38.4525 47.7897 40.6373 45.1264 43.8561 43.4461C41.1827 40.5478 38.6222 37.7713 36.0613 34.9927C35.9449 36.1999 35.8403 37.2737 35.7409 38.351C35.6713 39.1084 35.592 39.8629 35.5498 40.622C35.4928 41.6464 35.4446 42.6691 35.4378 43.6956C35.4338 44.2553 35.3799 44.8762 35.5939 45.3643C36.3597 47.1093 36.5016 48.9481 36.6139 50.7856L36.6135 50.7834Z" fill="black"/>
</mask>
<g mask="url(#mask0_24_260)">
<rect x="0.923828" y="0.157349" width="104.548" height="107.008" fill="white"/>
</g>
</svg>
