<svg width="23" height="20" viewBox="0 0 23 20" fill="none" xmlns="http://www.w3.org/2000/svg">
<path d="M22.8073 1.8003C22.8074 1.62367 22.7608 1.45016 22.672 1.29745C22.5832 1.14473 22.4556 1.01827 22.3021 0.930935C22.1485 0.8436 21.9746 0.798513 21.798 0.800268C21.6214 0.802023 21.4484 0.850555 21.2966 0.940924C20.7113 1.28931 20.0811 1.55611 19.4236 1.73392C18.4846 0.928156 17.2869 0.487227 16.0496 0.491733C14.6922 0.493296 13.3885 1.02233 12.4138 1.96711C11.4391 2.9119 10.8698 4.19849 10.826 5.55521C8.14994 5.12847 5.72459 3.73174 4.01241 1.63135C3.90925 1.50619 3.7775 1.40767 3.62827 1.3441C3.47905 1.28053 3.31672 1.25378 3.15499 1.2661C2.99335 1.27941 2.83739 1.3319 2.70058 1.41901C2.56378 1.50613 2.45026 1.62526 2.36983 1.7661C1.95736 2.48592 1.72046 3.29286 1.67838 4.12141C1.6363 4.94996 1.79022 5.77675 2.12764 6.53465L2.12569 6.5366C1.97404 6.63001 1.84888 6.76076 1.7622 6.91635C1.67551 7.07194 1.63019 7.24717 1.63057 7.42528C1.62873 7.57221 1.63755 7.71908 1.65694 7.86473C1.75908 9.123 2.31672 10.3008 3.2253 11.1772C3.16366 11.2947 3.12605 11.4232 3.11464 11.5553C3.10324 11.6874 3.11828 11.8205 3.15889 11.9468C3.55501 13.1809 4.39739 14.2228 5.5212 14.8686C4.37944 15.3101 3.14662 15.4641 1.93135 15.3169C1.70642 15.2887 1.47858 15.3377 1.2852 15.456C1.09182 15.5743 0.944378 15.7548 0.867066 15.9679C0.789755 16.181 0.787161 16.414 0.859712 16.6288C0.932263 16.8436 1.07565 17.0273 1.26635 17.1499C3.35645 18.496 5.79003 19.2118 8.27612 19.2114C11.0954 19.2431 13.8461 18.3422 16.1004 16.6489C18.3546 14.9555 19.9861 12.5646 20.7409 9.8481C21.094 8.66474 21.2743 7.43657 21.2761 6.20166C21.2761 6.13623 21.2761 6.06885 21.2751 6.00147C21.7972 5.4384 22.2017 4.77678 22.4648 4.05537C22.7279 3.33396 22.8444 2.5673 22.8073 1.8003ZM19.5007 5.01221C19.3355 5.20756 19.2519 5.45901 19.2673 5.71436C19.2771 5.87936 19.2761 6.04536 19.2761 6.20166C19.274 7.2452 19.1211 8.28296 18.822 9.28272C18.2055 11.5941 16.8311 13.6318 14.9191 15.0693C13.007 16.5069 10.6678 17.2612 8.27612 17.2114C7.417 17.2117 6.56084 17.1107 5.72534 16.9107C6.79075 16.5673 7.78693 16.038 8.66772 15.3472C8.82995 15.2194 8.94867 15.0446 9.00761 14.8468C9.06654 14.6489 9.0628 14.4376 8.9969 14.2419C8.93099 14.0462 8.80615 13.8758 8.6395 13.7539C8.47285 13.632 8.27257 13.5646 8.06612 13.561C7.23495 13.5481 6.44125 13.2131 5.85225 12.6265C6.00167 12.5982 6.15011 12.563 6.29757 12.521C6.51358 12.4595 6.70261 12.3271 6.83423 12.1451C6.96585 11.9632 7.03239 11.7422 7.02314 11.5178C7.0139 11.2934 6.9294 11.0786 6.78326 10.9081C6.63711 10.7375 6.43783 10.6211 6.21749 10.5776C5.73503 10.4824 5.28104 10.2771 4.89081 9.97783C4.50057 9.67855 4.18462 9.29331 3.96749 8.85205C4.14822 8.87672 4.3301 8.89204 4.51241 8.89795C4.72899 8.90123 4.94101 8.83553 5.11779 8.71036C5.29457 8.58519 5.42696 8.40704 5.49581 8.20166C5.56179 7.99443 5.55839 7.77133 5.48614 7.56619C5.41389 7.36106 5.27671 7.18508 5.09542 7.06494C4.65557 6.77191 4.29526 6.37436 4.04678 5.9079C3.79829 5.44143 3.66938 4.92062 3.67159 4.3921C3.67159 4.3257 3.67354 4.25929 3.67745 4.19386C5.91871 6.28412 8.82577 7.51631 11.8865 7.67335C12.0409 7.67944 12.1948 7.65034 12.3364 7.58825C12.478 7.52617 12.6036 7.43271 12.7038 7.31495C12.803 7.19606 12.8732 7.05576 12.909 6.90511C12.9447 6.75446 12.945 6.59757 12.9098 6.44679C12.8527 6.20816 12.8235 5.96367 12.8229 5.71827C12.8238 4.86281 13.1641 4.04264 13.769 3.43774C14.3739 2.83284 15.1941 2.49261 16.0495 2.4917C16.4897 2.49052 16.9253 2.5806 17.3288 2.75625C17.7324 2.9319 18.0952 3.1893 18.3942 3.51221C18.5096 3.6363 18.6547 3.72881 18.8159 3.78095C18.9771 3.83309 19.149 3.84313 19.3151 3.8101C19.7259 3.73016 20.1308 3.62249 20.527 3.48784C20.2568 4.04082 19.9114 4.55379 19.5007 5.01221Z" fill="black"/>
</svg>
