<svg width="119" height="119" viewBox="0 0 119 119" fill="none" xmlns="http://www.w3.org/2000/svg">
<path d="M44.4433 44.9075C42.3947 43.4325 40.8992 42.3467 39.4037 41.2815C33.3808 36.9589 27.3169 32.6568 21.335 28.2728C19.901 27.228 18.5489 25.9374 17.545 24.5033C16.9714 23.6429 16.7871 22.1065 17.1763 21.2051C17.4016 20.6724 19.2454 20.3856 20.1263 20.6929C22.2773 21.4099 24.3669 22.3933 26.3336 23.52C32.4589 27.0641 38.5228 30.7311 44.853 34.5005C45.4267 30.7311 45.9183 26.9821 46.6148 23.2742C47.1475 20.4061 47.885 17.538 48.6839 14.7315C49.1961 12.9082 50.2819 11.3308 52.4739 11.638C54.7478 11.9453 55.4853 13.7481 55.4444 15.7762C55.3624 21.8196 55.1576 27.8426 55.0346 33.886C54.9937 35.32 55.0346 36.754 55.0346 38.1881C55.26 38.3929 57.1857 36.6721 58.0871 35.7912C65.7898 28.2523 73.4926 20.7544 81.2773 13.2974C82.3631 12.2526 83.7357 11.3717 85.1287 10.7981C85.8662 10.4908 87.2593 10.7162 87.751 11.2488C88.2426 11.7815 88.3451 13.1745 87.9968 13.8915C87.3412 15.2641 86.3579 16.5137 85.3131 17.6405C78.4503 25.1794 71.5464 32.6773 64.6631 40.1957C63.9051 41.0151 63.1471 41.8756 62.0204 43.1252C67.1829 42.7565 71.8332 42.3467 76.4836 42.1009C85.8457 41.6297 95.2284 41.2405 104.591 40.8308C105.164 40.8103 105.779 40.8103 106.27 40.9127C109.487 41.5887 109.2 44.8051 106.783 45.2148C103.833 45.7269 100.862 46.362 97.8711 46.6693C87.1569 47.7346 76.4426 48.6769 65.7284 49.6808C65.503 49.7012 65.2982 49.7832 64.6221 49.9676C67.5721 52.2825 70.2968 54.413 73.0214 56.5231C78.1635 60.5384 83.3669 64.4922 88.427 68.5894C89.7791 69.6957 90.9673 71.1502 91.8277 72.6662C92.7496 74.2641 91.7867 75.6367 90.0249 75.2065C87.8739 74.6533 85.6614 73.7724 83.8381 72.5228C74.9471 66.4589 66.1791 60.2106 57.3701 54.0238C56.3867 53.3273 55.4034 52.6308 53.9694 51.586C53.6621 56.2363 53.4162 60.4155 53.0885 64.5946C52.1051 77.0297 51.1218 89.4648 50.0975 101.9C49.9746 103.272 49.7082 104.665 49.2985 105.977C48.7454 107.779 47.5162 108.968 45.5291 108.824C43.6648 108.681 42.5791 107.431 42.2513 105.669C41.944 103.989 41.7801 102.269 41.8006 100.568C41.9235 89.4648 42.1079 78.3818 42.2718 67.2783C42.2923 66.4589 42.2718 65.6599 42.2718 64.2464C41.3294 65.1478 40.6739 65.7419 40.0388 66.3769C32.9506 73.4651 25.8624 80.5738 18.7537 87.662C17.9548 88.461 17.0534 89.2599 16.0291 89.7106C15.3325 90.0179 14.1034 89.9974 13.5707 89.5672C13.0381 89.137 12.9152 87.9283 12.9152 87.2113C12.9357 84.9578 14.1444 83.954 15.2096 82.6634C21.4784 75.0631 27.8496 67.5242 34.2617 60.0262C36.5766 57.3221 39.0964 54.8023 42.0669 51.6474C36.5152 52.2825 31.701 52.8971 26.8867 53.3478C22.2569 53.778 17.627 54.0443 12.9766 54.3721C12.485 54.413 11.9728 54.3311 11.5221 54.2696C9.16623 53.9828 10.4978 51.4835 11.1739 51.3196C15.8242 50.1724 20.5155 49.0662 25.2273 48.2058C30.82 47.2429 43.1732 45.3377 44.4433 44.9075Z" fill="black"/>
</svg>
